<mxfile host="Electron" agent="Mozilla/5.0 (Windows NT 10.0; Win64; x64) AppleWebKit/537.36 (KHTML, like Gecko) draw.io/27.0.9 Chrome/134.0.6998.205 Electron/35.4.0 Safari/537.36" version="27.0.9">
  <diagram name="Page-1" id="35cIlC8KSsjH4VQauDML">
    <mxGraphModel dx="1025" dy="524" grid="1" gridSize="10" guides="1" tooltips="1" connect="1" arrows="1" fold="1" page="1" pageScale="1" pageWidth="850" pageHeight="1100" math="0" shadow="0">
      <root>
        <mxCell id="0" />
        <mxCell id="1" parent="0" />
        <mxCell id="YaYTZWTTnnCksKhqNa7p-1" value="Client à l&#39;étranger" style="shape=umlActor;verticalLabelPosition=bottom;verticalAlign=top;html=1;outlineConnect=0;" vertex="1" parent="1">
          <mxGeometry x="50" y="310" width="30" height="60" as="geometry" />
        </mxCell>
        <mxCell id="YaYTZWTTnnCksKhqNa7p-2" value="" style="swimlane;startSize=0;" vertex="1" parent="1">
          <mxGeometry x="140" y="120" width="120" height="90" as="geometry" />
        </mxCell>
        <mxCell id="YaYTZWTTnnCksKhqNa7p-3" value="TAPTAP SEND" style="text;html=1;align=center;verticalAlign=middle;resizable=0;points=[];autosize=1;strokeColor=none;fillColor=none;" vertex="1" parent="YaYTZWTTnnCksKhqNa7p-2">
          <mxGeometry x="10" y="30" width="100" height="30" as="geometry" />
        </mxCell>
        <mxCell id="YaYTZWTTnnCksKhqNa7p-4" value="" style="endArrow=classic;html=1;rounded=0;entryX=0.358;entryY=1.03;entryDx=0;entryDy=0;entryPerimeter=0;" edge="1" parent="1" source="YaYTZWTTnnCksKhqNa7p-1" target="YaYTZWTTnnCksKhqNa7p-2">
          <mxGeometry width="50" height="50" relative="1" as="geometry">
            <mxPoint x="400" y="300" as="sourcePoint" />
            <mxPoint x="450" y="250" as="targetPoint" />
          </mxGeometry>
        </mxCell>
        <mxCell id="YaYTZWTTnnCksKhqNa7p-5" value="Send money" style="edgeLabel;html=1;align=center;verticalAlign=middle;resizable=0;points=[];" vertex="1" connectable="0" parent="YaYTZWTTnnCksKhqNa7p-4">
          <mxGeometry x="0.0647" relative="1" as="geometry">
            <mxPoint x="1" as="offset" />
          </mxGeometry>
        </mxCell>
        <mxCell id="YaYTZWTTnnCksKhqNa7p-6" value="" style="swimlane;startSize=0;" vertex="1" parent="1">
          <mxGeometry x="430" y="30" width="140" height="80" as="geometry" />
        </mxCell>
        <mxCell id="YaYTZWTTnnCksKhqNa7p-7" value="PAYME CASHOUT" style="text;html=1;align=center;verticalAlign=middle;resizable=0;points=[];autosize=1;strokeColor=none;fillColor=none;" vertex="1" parent="YaYTZWTTnnCksKhqNa7p-6">
          <mxGeometry x="5" y="25" width="130" height="30" as="geometry" />
        </mxCell>
        <mxCell id="YaYTZWTTnnCksKhqNa7p-8" value="" style="endArrow=classic;html=1;rounded=0;exitX=0.808;exitY=-0.015;exitDx=0;exitDy=0;exitPerimeter=0;entryX=0;entryY=0.25;entryDx=0;entryDy=0;" edge="1" parent="1" source="YaYTZWTTnnCksKhqNa7p-2" target="YaYTZWTTnnCksKhqNa7p-6">
          <mxGeometry width="50" height="50" relative="1" as="geometry">
            <mxPoint x="400" y="300" as="sourcePoint" />
            <mxPoint x="450" y="250" as="targetPoint" />
          </mxGeometry>
        </mxCell>
        <mxCell id="YaYTZWTTnnCksKhqNa7p-9" value="Charge son wallet" style="edgeLabel;html=1;align=center;verticalAlign=middle;resizable=0;points=[];" vertex="1" connectable="0" parent="YaYTZWTTnnCksKhqNa7p-8">
          <mxGeometry x="0.033" y="-3" relative="1" as="geometry">
            <mxPoint as="offset" />
          </mxGeometry>
        </mxCell>
        <mxCell id="YaYTZWTTnnCksKhqNa7p-10" value="1" style="ellipse;whiteSpace=wrap;html=1;" vertex="1" parent="1">
          <mxGeometry x="330" y="40" width="20" height="20" as="geometry" />
        </mxCell>
        <mxCell id="YaYTZWTTnnCksKhqNa7p-11" value="2" style="ellipse;whiteSpace=wrap;html=1;" vertex="1" parent="1">
          <mxGeometry x="60" y="230" width="20" height="20" as="geometry" />
        </mxCell>
        <mxCell id="YaYTZWTTnnCksKhqNa7p-12" value="Envoie une requete pour le paiement" style="endArrow=open;endSize=12;dashed=1;html=1;rounded=0;exitX=1;exitY=0.75;exitDx=0;exitDy=0;entryX=0.75;entryY=1;entryDx=0;entryDy=0;" edge="1" parent="1" source="YaYTZWTTnnCksKhqNa7p-2" target="YaYTZWTTnnCksKhqNa7p-6">
          <mxGeometry width="160" relative="1" as="geometry">
            <mxPoint x="320" y="220" as="sourcePoint" />
            <mxPoint x="480" y="220" as="targetPoint" />
          </mxGeometry>
        </mxCell>
        <mxCell id="YaYTZWTTnnCksKhqNa7p-13" value="3" style="ellipse;whiteSpace=wrap;html=1;" vertex="1" parent="1">
          <mxGeometry x="390" y="160" width="20" height="20" as="geometry" />
        </mxCell>
        <mxCell id="YaYTZWTTnnCksKhqNa7p-14" value="Client au cameroun" style="shape=umlActor;verticalLabelPosition=bottom;verticalAlign=top;html=1;" vertex="1" parent="1">
          <mxGeometry x="690" y="250" width="30" height="60" as="geometry" />
        </mxCell>
        <mxCell id="YaYTZWTTnnCksKhqNa7p-17" value="" style="endArrow=classic;html=1;rounded=0;exitX=0.998;exitY=0.617;exitDx=0;exitDy=0;exitPerimeter=0;" edge="1" parent="1" source="YaYTZWTTnnCksKhqNa7p-6" target="YaYTZWTTnnCksKhqNa7p-14">
          <mxGeometry width="50" height="50" relative="1" as="geometry">
            <mxPoint x="470" y="280" as="sourcePoint" />
            <mxPoint x="520" y="230" as="targetPoint" />
          </mxGeometry>
        </mxCell>
        <mxCell id="YaYTZWTTnnCksKhqNa7p-19" value="effectuer le paiement au client camerounais" style="edgeLabel;html=1;align=center;verticalAlign=middle;resizable=0;points=[];" vertex="1" connectable="0" parent="YaYTZWTTnnCksKhqNa7p-17">
          <mxGeometry x="-0.1454" y="-1" relative="1" as="geometry">
            <mxPoint x="10" y="24" as="offset" />
          </mxGeometry>
        </mxCell>
        <mxCell id="YaYTZWTTnnCksKhqNa7p-18" value="4" style="ellipse;whiteSpace=wrap;html=1;" vertex="1" parent="1">
          <mxGeometry x="640" y="140" width="20" height="20" as="geometry" />
        </mxCell>
        <mxCell id="YaYTZWTTnnCksKhqNa7p-21" value="PRINCIPE DE FONCTIONNEMENT DE PAYME CASHOUT" style="text;html=1;align=center;verticalAlign=middle;resizable=0;points=[];autosize=1;strokeColor=none;fillColor=none;" vertex="1" parent="1">
          <mxGeometry x="230" y="420" width="340" height="30" as="geometry" />
        </mxCell>
        <mxCell id="YaYTZWTTnnCksKhqNa7p-22" value="" style="endArrow=none;html=1;rounded=0;entryX=0.966;entryY=1.089;entryDx=0;entryDy=0;entryPerimeter=0;" edge="1" parent="1" target="YaYTZWTTnnCksKhqNa7p-21">
          <mxGeometry width="50" height="50" relative="1" as="geometry">
            <mxPoint x="240" y="453" as="sourcePoint" />
            <mxPoint x="520" y="230" as="targetPoint" />
          </mxGeometry>
        </mxCell>
      </root>
    </mxGraphModel>
  </diagram>
</mxfile>
